<mxfile host="app.diagrams.net" agent="Mozilla/5.0 (Macintosh; Intel Mac OS X 10_15_7) AppleWebKit/537.36 (KHTML, like Gecko) Chrome/131.0.0.0 Safari/537.36" version="26.0.4">
  <diagram name="Pagina-1" id="FRjdqSjt4VdIxTtuiiPm">
    <mxGraphModel dx="2581" dy="1075" grid="1" gridSize="10" guides="1" tooltips="1" connect="1" arrows="1" fold="1" page="1" pageScale="1" pageWidth="827" pageHeight="1169" math="0" shadow="0">
      <root>
        <mxCell id="0" />
        <mxCell id="1" parent="0" />
        <mxCell id="-G13Jn_1fGa-Q0qqaEGY-2" value="" style="rounded=0;whiteSpace=wrap;html=1;dashed=1;dashPattern=8 8;" vertex="1" parent="1">
          <mxGeometry x="120" y="430" width="645" height="330" as="geometry" />
        </mxCell>
        <mxCell id="-G13Jn_1fGa-Q0qqaEGY-3" value="&lt;font style=&quot;font-size: 15px;&quot;&gt;&lt;b&gt;Hospital walls&lt;/b&gt;&lt;/font&gt;" style="text;html=1;align=center;verticalAlign=middle;whiteSpace=wrap;rounded=0;" vertex="1" parent="1">
          <mxGeometry x="375" y="760" width="130" height="30" as="geometry" />
        </mxCell>
        <mxCell id="-G13Jn_1fGa-Q0qqaEGY-8" value="" style="edgeStyle=orthogonalEdgeStyle;rounded=0;orthogonalLoop=1;jettySize=auto;html=1;" edge="1" parent="1" source="-G13Jn_1fGa-Q0qqaEGY-4" target="-G13Jn_1fGa-Q0qqaEGY-7">
          <mxGeometry relative="1" as="geometry" />
        </mxCell>
        <mxCell id="-G13Jn_1fGa-Q0qqaEGY-4" value="&lt;h5 style=&quot;padding-top: 0px; padding-bottom: 100px;&quot;&gt;&lt;font style=&quot;font-size: 19px;&quot;&gt;Proxy&lt;/font&gt;&lt;/h5&gt;" style="rounded=0;whiteSpace=wrap;html=1;align=center;fillColor=#d5e8d4;strokeColor=#82b366;strokeWidth=7.0866;" vertex="1" parent="1">
          <mxGeometry x="160" y="470" width="560" height="180" as="geometry" />
        </mxCell>
        <mxCell id="-G13Jn_1fGa-Q0qqaEGY-5" value="Data repositories" style="swimlane;whiteSpace=wrap;html=1;fillColor=default;swimlaneFillColor=default;" vertex="1" parent="1">
          <mxGeometry x="200" y="545" width="200" height="80" as="geometry" />
        </mxCell>
        <mxCell id="-G13Jn_1fGa-Q0qqaEGY-6" value="Algorithm repositories" style="swimlane;whiteSpace=wrap;html=1;fillColor=default;swimlaneFillColor=default;" vertex="1" parent="1">
          <mxGeometry x="480" y="545" width="200" height="80" as="geometry" />
        </mxCell>
        <mxCell id="-G13Jn_1fGa-Q0qqaEGY-7" value="&lt;font style=&quot;font-size: 20px;&quot;&gt;Processor&lt;/font&gt;" style="rounded=0;whiteSpace=wrap;html=1;fillColor=#dae8fc;strokeColor=#6c8ebf;strokeWidth=7.086599999999999;" vertex="1" parent="1">
          <mxGeometry x="340" y="680" width="200" height="60" as="geometry" />
        </mxCell>
        <mxCell id="-G13Jn_1fGa-Q0qqaEGY-9" value="&lt;font style=&quot;font-size: 18px;&quot;&gt;&lt;b&gt;GUI&lt;/b&gt;&lt;/font&gt;" style="rounded=0;whiteSpace=wrap;html=1;fillColor=#fff2cc;strokeColor=#d6b656;strokeWidth=7.0866;" vertex="1" parent="1">
          <mxGeometry x="350" y="360" width="180" height="50" as="geometry" />
        </mxCell>
        <mxCell id="-G13Jn_1fGa-Q0qqaEGY-11" value="" style="endArrow=classic;startArrow=classic;html=1;rounded=0;entryX=0.5;entryY=1;entryDx=0;entryDy=0;exitX=0.5;exitY=0;exitDx=0;exitDy=0;" edge="1" parent="1" source="-G13Jn_1fGa-Q0qqaEGY-4" target="-G13Jn_1fGa-Q0qqaEGY-9">
          <mxGeometry width="50" height="50" relative="1" as="geometry">
            <mxPoint x="390" y="580" as="sourcePoint" />
            <mxPoint x="440" y="530" as="targetPoint" />
          </mxGeometry>
        </mxCell>
        <mxCell id="-G13Jn_1fGa-Q0qqaEGY-12" value="permAgent" style="swimlane;whiteSpace=wrap;html=1;fillColor=#fff2cc;strokeColor=#d6b656;" vertex="1" parent="1">
          <mxGeometry x="-10" y="520" width="120" height="40" as="geometry" />
        </mxCell>
        <mxCell id="-G13Jn_1fGa-Q0qqaEGY-14" value="Scheduler&lt;span style=&quot;color: rgba(0, 0, 0, 0); font-family: monospace; font-size: 0px; font-weight: 400; text-align: start; text-wrap-mode: nowrap;&quot;&gt;%3CmxGraphModel%3E%3Croot%3E%3CmxCell%20id%3D%220%22%2F%3E%3CmxCell%20id%3D%221%22%20parent%3D%220%22%2F%3E%3CmxCell%20id%3D%222%22%20value%3D%22permAgent%22%20style%3D%22swimlane%3BwhiteSpace%3Dwrap%3Bhtml%3D1%3B%22%20vertex%3D%221%22%20parent%3D%221%22%3E%3CmxGeometry%20x%3D%22-30%22%20y%3D%22490%22%20width%3D%22120%22%20height%3D%2240%22%20as%3D%22geometry%22%2F%3E%3C%2FmxCell%3E%3C%2Froot%3E%3C%2FmxGraphModel%3E&lt;/span&gt;" style="swimlane;whiteSpace=wrap;html=1;fillColor=#fff2cc;strokeColor=#d6b656;" vertex="1" parent="1">
          <mxGeometry x="-10" y="575" width="120" height="40" as="geometry" />
        </mxCell>
        <mxCell id="-G13Jn_1fGa-Q0qqaEGY-15" value="B&amp;amp;C Agent" style="swimlane;whiteSpace=wrap;html=1;fillColor=#e1d5e7;strokeColor=#9673a6;" vertex="1" parent="1">
          <mxGeometry x="790" y="540" width="100" height="40" as="geometry" />
        </mxCell>
        <mxCell id="-G13Jn_1fGa-Q0qqaEGY-19" value="" style="endArrow=classic;startArrow=classic;html=1;rounded=0;exitX=1;exitY=0.5;exitDx=0;exitDy=0;entryX=0.002;entryY=0.331;entryDx=0;entryDy=0;entryPerimeter=0;" edge="1" parent="1" source="-G13Jn_1fGa-Q0qqaEGY-12" target="-G13Jn_1fGa-Q0qqaEGY-4">
          <mxGeometry width="50" height="50" relative="1" as="geometry">
            <mxPoint x="390" y="580" as="sourcePoint" />
            <mxPoint x="150" y="540" as="targetPoint" />
          </mxGeometry>
        </mxCell>
        <mxCell id="-G13Jn_1fGa-Q0qqaEGY-20" value="" style="endArrow=classic;startArrow=classic;html=1;rounded=0;exitX=1;exitY=0.5;exitDx=0;exitDy=0;entryX=0;entryY=0.75;entryDx=0;entryDy=0;" edge="1" parent="1" source="-G13Jn_1fGa-Q0qqaEGY-14" target="-G13Jn_1fGa-Q0qqaEGY-4">
          <mxGeometry width="50" height="50" relative="1" as="geometry">
            <mxPoint x="390" y="580" as="sourcePoint" />
            <mxPoint x="440" y="530" as="targetPoint" />
          </mxGeometry>
        </mxCell>
        <mxCell id="-G13Jn_1fGa-Q0qqaEGY-21" value="" style="endArrow=classic;startArrow=classic;html=1;rounded=0;entryX=1;entryY=0.5;entryDx=0;entryDy=0;exitX=0;exitY=0.5;exitDx=0;exitDy=0;" edge="1" parent="1" source="-G13Jn_1fGa-Q0qqaEGY-15" target="-G13Jn_1fGa-Q0qqaEGY-4">
          <mxGeometry width="50" height="50" relative="1" as="geometry">
            <mxPoint x="390" y="580" as="sourcePoint" />
            <mxPoint x="440" y="530" as="targetPoint" />
          </mxGeometry>
        </mxCell>
      </root>
    </mxGraphModel>
  </diagram>
</mxfile>
